<svg id="f100923f-45c9-4a23-9c4d-76a170c1a177" data-name="Bg elements" xmlns="http://www.w3.org/2000/svg" viewBox="0 0 1615.05 1661.01"><defs><style>.a471b2c4-7435-4b86-902d-28bd29591ea4,.a518ff48-143a-4fb6-8f18-87339788deb5,.a9be1f25-49e1-4131-a718-c0d01d1d8f1b,.ae12c432-cb9c-4793-8c09-b69f7d34b2f0,.b7381220-ed65-46ee-a6a3-a79ebafa359a,.e186f018-8eb7-4afb-92a2-a04281efda77,.e41e7199-fac5-49c5-bb92-058a16d0439a,.ef0b24f9-d0bf-4b97-b0b3-efb5b5df1752,.f538569b-1bad-450d-bc30-8d70d396fc28{fill:none;stroke-miterlimit:10;}.f538569b-1bad-450d-bc30-8d70d396fc28{stroke:#c37663;stroke-width:3px;}.a518ff48-143a-4fb6-8f18-87339788deb5,.a9be1f25-49e1-4131-a718-c0d01d1d8f1b,.e41e7199-fac5-49c5-bb92-058a16d0439a,.f538569b-1bad-450d-bc30-8d70d396fc28,.fd94f594-5624-4448-ac69-65001bd81610{stroke-linecap:round;}.bbfaca0b-47ca-4d7c-b33d-9bb0f171cd9a{fill:#93b7fd;}.b6e651bd-a461-4bc8-90da-552e4e77deb9,.fd94f594-5624-4448-ac69-65001bd81610{fill:#cf4e5c;}.e61552d9-7f32-4de4-ac4d-07b1c5cdae00{fill:#ff7386;}.ef0b24f9-d0bf-4b97-b0b3-efb5b5df1752{stroke:#cf4e5c;stroke-width:3.79px;}.af1e5619-26bb-4ac9-9f46-d7c2a927e79b{fill:#4649cf;}.a471b2c4-7435-4b86-902d-28bd29591ea4,.e186f018-8eb7-4afb-92a2-a04281efda77{stroke:#fff;}.a471b2c4-7435-4b86-902d-28bd29591ea4,.b7381220-ed65-46ee-a6a3-a79ebafa359a{stroke-width:3.02px;}.ae12c432-cb9c-4793-8c09-b69f7d34b2f0,.b7381220-ed65-46ee-a6a3-a79ebafa359a,.fd94f594-5624-4448-ac69-65001bd81610{stroke:#ff7386;}.ae12c432-cb9c-4793-8c09-b69f7d34b2f0,.e186f018-8eb7-4afb-92a2-a04281efda77{stroke-width:3.69px;}.a518ff48-143a-4fb6-8f18-87339788deb5,.a9be1f25-49e1-4131-a718-c0d01d1d8f1b,.e41e7199-fac5-49c5-bb92-058a16d0439a{stroke:#4649cf;}.e41e7199-fac5-49c5-bb92-058a16d0439a{stroke-width:3.65px;}.a518ff48-143a-4fb6-8f18-87339788deb5{stroke-width:3.73px;}.a9be1f25-49e1-4131-a718-c0d01d1d8f1b{stroke-width:3.8px;}.fd94f594-5624-4448-ac69-65001bd81610{stroke-linejoin:round;stroke-width:4.83px;}.bdadb1ab-3fc2-42ec-bf10-96b2eaefa4ea{fill:#b3c0e8;}</style></defs><path class="f538569b-1bad-450d-bc30-8d70d396fc28" d="M1189.54,1759.72c45.26-34.56,119.85-72.48,168-107.49,49-35.64,110.69-103.12,143.33-188.92" transform="translate(-185.15 -239.17)"/><path class="f538569b-1bad-450d-bc30-8d70d396fc28" d="M594.35,1011.48c-27.85,10.61-53,27.7-59.63,44.5-11.61,29.27-1.62,63.41,16.35,87.34" transform="translate(-185.15 -239.17)"/><polygon class="bbfaca0b-47ca-4d7c-b33d-9bb0f171cd9a" points="199.27 298.13 163.32 293.09 185.66 264.48 199.27 298.13"/><rect class="b6e651bd-a461-4bc8-90da-552e4e77deb9" x="1532.86" y="1142.27" width="196.36" height="195.94" rx="58.56" transform="translate(-417.83 1852.57) rotate(-61.8)"/><rect class="e61552d9-7f32-4de4-ac4d-07b1c5cdae00" x="1524.85" y="1143.42" width="196.36" height="195.94" rx="58.56" transform="translate(-423.07 1846.12) rotate(-61.8)"/><circle class="ef0b24f9-d0bf-4b97-b0b3-efb5b5df1752" cx="1437.87" cy="1002.22" r="49.57"/><circle class="b6e651bd-a461-4bc8-90da-552e4e77deb9" cx="1623.03" cy="1241.4" r="42.89" transform="translate(76.38 2525.9) rotate(-85.63)"/><rect class="bbfaca0b-47ca-4d7c-b33d-9bb0f171cd9a" x="1409.97" y="708.21" width="199.06" height="198.64" rx="59.37" transform="translate(193.26 -716.69) rotate(20.5)"/><rect class="af1e5619-26bb-4ac9-9f46-d7c2a927e79b" x="1408.29" y="700.53" width="199.06" height="198.64" rx="59.37" transform="translate(190.47 -716.59) rotate(20.5)"/><path class="bbfaca0b-47ca-4d7c-b33d-9bb0f171cd9a" d="M1446.4,838.93a16.45,16.45,0,1,1,21.16-9.65A16.46,16.46,0,0,1,1446.4,838.93Z" transform="translate(-185.15 -239.17)"/><path class="bbfaca0b-47ca-4d7c-b33d-9bb0f171cd9a" d="M1498.05,849.46a8.22,8.22,0,0,1-4.82-10.58,43.9,43.9,0,0,0-25.71-56.43,8.22,8.22,0,0,1,5.76-15.4,60.31,60.31,0,0,1,35.36,77.59A8.24,8.24,0,0,1,1498.05,849.46Z" transform="translate(-185.15 -239.17)"/><path class="bbfaca0b-47ca-4d7c-b33d-9bb0f171cd9a" d="M1539.13,864.82a8.21,8.21,0,0,1-4.82-10.58,87.81,87.81,0,0,0-51.44-112.86,8.22,8.22,0,0,1,5.76-15.4,104.06,104.06,0,0,1,61.08,134A8.22,8.22,0,0,1,1539.13,864.82Z" transform="translate(-185.15 -239.17)"/><circle class="e61552d9-7f32-4de4-ac4d-07b1c5cdae00" cx="1611.96" cy="1041.59" r="12.73" transform="translate(-465.53 482.42) rotate(-23.27)"/><circle class="a471b2c4-7435-4b86-902d-28bd29591ea4" cx="1426.81" cy="802.42" r="38.43"/><circle class="b7381220-ed65-46ee-a6a3-a79ebafa359a" cx="1426.81" cy="802.42" r="38.43"/><circle class="e61552d9-7f32-4de4-ac4d-07b1c5cdae00" cx="1693.21" cy="1587.73" r="12.73" transform="translate(-811.92 1423.14) rotate(-45)"/><circle class="a471b2c4-7435-4b86-902d-28bd29591ea4" cx="1508.05" cy="1348.55" r="38.43"/><circle class="b7381220-ed65-46ee-a6a3-a79ebafa359a" cx="1508.05" cy="1348.55" r="38.43"/><circle class="e61552d9-7f32-4de4-ac4d-07b1c5cdae00" cx="601.9" cy="1613.97" r="15.52" transform="translate(-1285.89 1635.98) rotate(-78.27)"/><circle class="e186f018-8eb7-4afb-92a2-a04281efda77" cx="416.74" cy="1374.79" r="46.85"/><circle class="ae12c432-cb9c-4793-8c09-b69f7d34b2f0" cx="416.74" cy="1374.79" r="46.85"/><circle class="e61552d9-7f32-4de4-ac4d-07b1c5cdae00" cx="471.24" cy="331.62" r="15.52" transform="translate(-117.06 504.16) rotate(-80.74)"/><circle class="e186f018-8eb7-4afb-92a2-a04281efda77" cx="286.08" cy="92.44" r="46.85"/><circle class="ae12c432-cb9c-4793-8c09-b69f7d34b2f0" cx="286.08" cy="92.44" r="46.85"/><circle class="e61552d9-7f32-4de4-ac4d-07b1c5cdae00" cx="1330.78" cy="325.84" r="15.52"/><circle class="e186f018-8eb7-4afb-92a2-a04281efda77" cx="1330.78" cy="325.84" r="46.85"/><circle class="ae12c432-cb9c-4793-8c09-b69f7d34b2f0" cx="1330.78" cy="325.84" r="46.85"/><circle class="e61552d9-7f32-4de4-ac4d-07b1c5cdae00" cx="518.09" cy="945.75" r="15.52" transform="translate(-683.87 1065.68) rotate(-80.74)"/><circle class="e186f018-8eb7-4afb-92a2-a04281efda77" cx="332.94" cy="706.58" r="46.85"/><circle class="ae12c432-cb9c-4793-8c09-b69f7d34b2f0" cx="332.94" cy="706.58" r="46.85"/><circle class="e61552d9-7f32-4de4-ac4d-07b1c5cdae00" cx="1151.74" cy="287.87" r="15.52" transform="translate(-51.37 659.55) rotate(-45)"/><circle class="e186f018-8eb7-4afb-92a2-a04281efda77" cx="966.59" cy="48.7" r="46.85"/><circle class="ae12c432-cb9c-4793-8c09-b69f7d34b2f0" cx="966.59" cy="48.7" r="46.85"/><circle class="e61552d9-7f32-4de4-ac4d-07b1c5cdae00" cx="330.75" cy="820.87" r="12.96" transform="translate(-729.75 451.33) rotate(-59.58)"/><circle class="e61552d9-7f32-4de4-ac4d-07b1c5cdae00" cx="873.05" cy="253.98" r="12.96" transform="translate(-216.78 105.81) rotate(-21.96)"/><path class="af1e5619-26bb-4ac9-9f46-d7c2a927e79b" d="M785.74,344.79a6.83,6.83,0,1,1-6.82-6.83A6.82,6.82,0,0,1,785.74,344.79Z" transform="translate(-185.15 -239.17)"/><polygon class="bbfaca0b-47ca-4d7c-b33d-9bb0f171cd9a" points="999.44 211.34 981.8 179.19 1018.47 179.99 999.44 211.34"/><polygon class="bbfaca0b-47ca-4d7c-b33d-9bb0f171cd9a" points="1615.05 612.31 1564.28 629.32 1574.93 576.84 1615.05 612.31"/><circle class="e61552d9-7f32-4de4-ac4d-07b1c5cdae00" cx="493.3" cy="1253.93" r="13.1" transform="translate(-398.89 -132.32) rotate(-10.17)"/><path class="af1e5619-26bb-4ac9-9f46-d7c2a927e79b" d="M647.79,506.51a6.83,6.83,0,1,1-6.83-6.83A6.82,6.82,0,0,1,647.79,506.51Z" transform="translate(-185.15 -239.17)"/><path class="af1e5619-26bb-4ac9-9f46-d7c2a927e79b" d="M803.22,1783.67a6.83,6.83,0,1,1-6.82-6.83A6.82,6.82,0,0,1,803.22,1783.67Z" transform="translate(-185.15 -239.17)"/><polygon class="bbfaca0b-47ca-4d7c-b33d-9bb0f171cd9a" points="1176.45 385.69 1142.85 414.15 1135 370.82 1176.45 385.69"/><polygon class="bbfaca0b-47ca-4d7c-b33d-9bb0f171cd9a" points="1367.03 1133.49 1333.43 1161.95 1325.58 1118.62 1367.03 1133.49"/><polygon class="bbfaca0b-47ca-4d7c-b33d-9bb0f171cd9a" points="1348.3 108.24 1314.7 136.7 1306.85 93.37 1348.3 108.24"/><circle class="e61552d9-7f32-4de4-ac4d-07b1c5cdae00" cx="1562.79" cy="1476" r="15.68" transform="translate(-304.96 2574.64) rotate(-81.85)"/><circle class="af1e5619-26bb-4ac9-9f46-d7c2a927e79b" cx="1589.67" cy="1140.29" r="6.82"/><path class="af1e5619-26bb-4ac9-9f46-d7c2a927e79b" d="M1738.07,668.19a6.83,6.83,0,1,1-6.82-6.82A6.82,6.82,0,0,1,1738.07,668.19Z" transform="translate(-185.15 -239.17)"/><circle class="af1e5619-26bb-4ac9-9f46-d7c2a927e79b" cx="1748.1" cy="1135.01" r="6.82" transform="translate(-489.39 532.5) rotate(-22.96)"/><path class="af1e5619-26bb-4ac9-9f46-d7c2a927e79b" d="M1559,1695.18a6.83,6.83,0,1,1-6.83-6.82A6.83,6.83,0,0,1,1559,1695.18Z" transform="translate(-185.15 -239.17)"/><circle class="af1e5619-26bb-4ac9-9f46-d7c2a927e79b" cx="78.85" cy="453.82" r="6.82"/><circle class="af1e5619-26bb-4ac9-9f46-d7c2a927e79b" cx="360.36" cy="131.08" r="6.82"/><polygon class="bbfaca0b-47ca-4d7c-b33d-9bb0f171cd9a" points="414.47 46.23 387.98 55.11 393.54 27.73 414.47 46.23"/><polygon class="bbfaca0b-47ca-4d7c-b33d-9bb0f171cd9a" points="579.04 1502.94 528.26 1519.95 538.92 1467.47 579.04 1502.94"/><circle class="e61552d9-7f32-4de4-ac4d-07b1c5cdae00" cx="1357.06" cy="961.94" r="16.18" transform="translate(-481.25 907.15) rotate(-41.69)"/><circle class="af1e5619-26bb-4ac9-9f46-d7c2a927e79b" cx="1165.08" cy="528.98" r="6.82"/><path class="af1e5619-26bb-4ac9-9f46-d7c2a927e79b" d="M1618.78,580.54a6.83,6.83,0,1,1-6.82-6.82A6.82,6.82,0,0,1,1618.78,580.54Z" transform="translate(-185.15 -239.17)"/><polygon class="bbfaca0b-47ca-4d7c-b33d-9bb0f171cd9a" points="217.74 1114.01 166.97 1131.02 177.62 1078.54 217.74 1114.01"/><circle class="e61552d9-7f32-4de4-ac4d-07b1c5cdae00" cx="1295.91" cy="545.12" r="14.82" transform="translate(324.83 1471.64) rotate(-78.83)"/><circle class="e61552d9-7f32-4de4-ac4d-07b1c5cdae00" cx="1450.9" cy="1776.84" r="14.82" transform="translate(-943.44 2155.56) rotate(-66.39)"/><circle class="af1e5619-26bb-4ac9-9f46-d7c2a927e79b" cx="252.8" cy="1189.51" r="6.82"/><path class="af1e5619-26bb-4ac9-9f46-d7c2a927e79b" d="M1450.9,1114.52a6.83,6.83,0,1,1-6.83-6.83A6.82,6.82,0,0,1,1450.9,1114.52Z" transform="translate(-185.15 -239.17)"/><circle class="af1e5619-26bb-4ac9-9f46-d7c2a927e79b" cx="1194.91" cy="136.23" r="6.82"/><path class="af1e5619-26bb-4ac9-9f46-d7c2a927e79b" d="M500.12,1056.72a6.82,6.82,0,1,1-6.82-6.83A6.82,6.82,0,0,1,500.12,1056.72Z" transform="translate(-185.15 -239.17)"/><path class="af1e5619-26bb-4ac9-9f46-d7c2a927e79b" d="M1482.4,978.12a6.83,6.83,0,1,1-6.83-6.83A6.82,6.82,0,0,1,1482.4,978.12Z" transform="translate(-185.15 -239.17)"/><polygon class="bbfaca0b-47ca-4d7c-b33d-9bb0f171cd9a" points="155.68 711.06 115.86 724.4 124.21 683.25 155.68 711.06"/><polygon class="bbfaca0b-47ca-4d7c-b33d-9bb0f171cd9a" points="265.88 1483.82 226.06 1497.16 234.42 1456.01 265.88 1483.82"/><polygon class="bbfaca0b-47ca-4d7c-b33d-9bb0f171cd9a" points="39.82 520.72 0 534.06 8.36 492.9 39.82 520.72"/><circle class="e61552d9-7f32-4de4-ac4d-07b1c5cdae00" cx="984.5" cy="444.09" r="11.06" transform="translate(-219.3 563.84) rotate(-43.69)"/><path class="e61552d9-7f32-4de4-ac4d-07b1c5cdae00" d="M388.22,403a11.05,11.05,0,1,1-13.44-8A11.06,11.06,0,0,1,388.22,403Z" transform="translate(-185.15 -239.17)"/><circle class="af1e5619-26bb-4ac9-9f46-d7c2a927e79b" cx="903.65" cy="115.04" r="6.82"/><rect class="bbfaca0b-47ca-4d7c-b33d-9bb0f171cd9a" x="242.34" y="1025.44" width="204.93" height="204.5" rx="61.12" transform="translate(-425.89 1912.1) rotate(-133.23)"/><rect class="af1e5619-26bb-4ac9-9f46-d7c2a927e79b" x="240.81" y="1033.75" width="204.93" height="204.5" rx="61.12" transform="translate(-434.51 1924.99) rotate(-133.23)"/><path class="bbfaca0b-47ca-4d7c-b33d-9bb0f171cd9a" d="M369,1087.76a27.11,27.11,0,0,0-45.41,27.34,27.11,27.11,0,1,0-13.21,52,26.46,26.46,0,0,0,4.27.11l58.27,1.61a1.3,1.3,0,0,0,1.34-1.26l2.07-60.43h0a27,27,0,0,0-7.32-19.37Z" transform="translate(-185.15 -239.17)"/><path class="e41e7199-fac5-49c5-bb92-058a16d0439a" d="M205.06,1326.55s37,25.22,52.58,61.31,13.25,82.26,28.25,111.78,41.79,50.49,58.48,49.32,30.39-9.21,34.84-18.63c6.24-13.23,3.75-32.74-10.3-39.86-16.09-8.14-32.77,8.59-35.85,18.26-4.85,15.23-.49,44.6,27.51,57.56s47.15,4.14,64,.71,49,1.85,65.67,32.08,7.19,54.08,7.19,54.08" transform="translate(-185.15 -239.17)"/><path class="a518ff48-143a-4fb6-8f18-87339788deb5" d="M1585.28,1598.5s-4.86-27.17,14-45.31,49.56-20,79.79-51.72,31.24-87.82,31.24-87.82" transform="translate(-185.15 -239.17)"/><path class="a9be1f25-49e1-4131-a718-c0d01d1d8f1b" d="M1250,406.46s21.51-7.86,43.55,2.38,82.3,106,125,115.24,57.77-21.06,54.73-34.64c-3.43-15.3-31.17-36.14-64.9-4.21s-13.37,79.95-13.37,79.95" transform="translate(-185.15 -239.17)"/><path class="a9be1f25-49e1-4131-a718-c0d01d1d8f1b" d="M865,1803.75s17.14-15.19,41.39-13.74,115.44,68.48,158.57,61.4,46-40.77,38.23-52.29c-8.8-13-42.25-22.2-61.93,19.86s16.86,79.3,16.86,79.3" transform="translate(-185.15 -239.17)"/><rect class="b6e651bd-a461-4bc8-90da-552e4e77deb9" x="368.96" y="569.48" width="190.52" height="190.12" rx="56.82" transform="translate(-38.09 1171.38) rotate(-122.03)"/><rect class="e61552d9-7f32-4de4-ac4d-07b1c5cdae00" x="366.07" y="576.79" width="190.52" height="190.12" rx="56.82" transform="translate(-48.7 1180.1) rotate(-122.03)"/><rect class="fd94f594-5624-4448-ac69-65001bd81610" x="415.75" y="652.16" width="110.2" height="69.82" transform="translate(-477.88 115.16) rotate(-32.03)"/><polygon class="fd94f594-5624-4448-ac69-65001bd81610" points="257.61 506.88 282.18 442.27 351.03 448.43 257.61 506.88"/><polygon class="fd94f594-5624-4448-ac69-65001bd81610" points="220.47 447.52 245.05 382.92 313.89 389.07 220.47 447.52"/><polygon class="fd94f594-5624-4448-ac69-65001bd81610" points="220.47 447.52 245.05 382.92 313.89 389.07 220.47 447.52"/><polygon class="fd94f594-5624-4448-ac69-65001bd81610" points="313.89 389.07 293.28 443.26 282.18 442.27 278.22 452.69 220.47 447.52 313.89 389.07"/><polygon class="bbfaca0b-47ca-4d7c-b33d-9bb0f171cd9a" points="701.9 166.53 701.62 110.49 852.62 74.4 701.9 166.53"/><polygon class="bdadb1ab-3fc2-42ec-bf10-96b2eaefa4ea" points="850.51 75.22 701.9 166.53 734.53 129.52 850.51 75.22"/><polygon class="af1e5619-26bb-4ac9-9f46-d7c2a927e79b" points="852.62 74.4 734.53 129.52 777.55 179.22 852.62 74.4"/><polygon class="af1e5619-26bb-4ac9-9f46-d7c2a927e79b" points="701.62 110.49 653.63 81.31 852.62 74.4 701.62 110.49"/><path class="af1e5619-26bb-4ac9-9f46-d7c2a927e79b" d="M497.44,459.16a2,2,0,0,1-1.81-.5,58,58,0,0,1-4.3-4.47,2,2,0,0,1,3-2.61,57.67,57.67,0,0,0,4,4.17,2,2,0,0,1,.1,2.82A2,2,0,0,1,497.44,459.16Z" transform="translate(-185.15 -239.17)"/><path class="af1e5619-26bb-4ac9-9f46-d7c2a927e79b" d="M800.54,463.09c-1.73.39-3.49.75-5.24,1.1a2,2,0,1,1-.77-3.93c3.94-.77,7.91-1.68,11.73-2.69a2,2,0,0,1,2.45,1.43,2,2,0,0,1-1.43,2.44C805.07,462,802.8,462.58,800.54,463.09Zm-17.19,3-.18,0c-4,.53-8.13.95-12.22,1.24a2,2,0,0,1-.29-4c4-.29,8.05-.7,12-1.22a2,2,0,0,1,.7,3.93ZM818.86,458a2,2,0,0,1-1.08-3.85c3.82-1.3,7.6-2.74,11.23-4.28a2,2,0,1,1,1.56,3.68c-3.72,1.58-7.59,3.06-11.51,4.39Zm-59.77,9.93a1.84,1.84,0,0,1-.41.05c-4.08.06-8.21,0-12.28-.18a2,2,0,0,1,.17-4c4,.18,8,.24,12,.18a2,2,0,0,1,.47,3.95Zm82.13-19.47a2,2,0,0,1-1.37-3.72c3.58-1.87,7.06-3.9,10.36-6a2,2,0,1,1,2.17,3.36c-3.4,2.19-7,4.27-10.67,6.2A1.53,1.53,0,0,1,841.22,448.42ZM734.79,466.83a1.94,1.94,0,0,1-.64,0c-4.09-.41-8.19-1-12.18-1.61a2,2,0,0,1,.64-3.95c3.92.64,7.94,1.17,11.95,1.58a2,2,0,0,1,.23,3.94Zm126.85-31.57a2,2,0,0,1-1.68-3.53,115.45,115.45,0,0,0,9-7.87,2,2,0,0,1,2.78,2.87,119.55,119.55,0,0,1-9.3,8.14A2.05,2.05,0,0,1,861.64,435.26ZM636.75,484h0c-3.94.82-8,1.54-12.11,2.12a2,2,0,0,1-.57-4c4-.57,8-1.27,11.87-2.07a2,2,0,0,1,.84,3.91Zm11.82-2.86a2,2,0,0,1-1-3.88c3.91-1.09,7.77-2.32,11.45-3.64a2,2,0,1,1,1.35,3.76c-3.77,1.36-7.72,2.62-11.73,3.73Zm-35.89,6.33a1.26,1.26,0,0,1-.27,0c-4,.35-8.18.58-12.26.7a2,2,0,0,1-.12-4c4-.12,8.06-.35,12-.68a2,2,0,0,1,.61,3.94Zm58.75-14.6a2,2,0,0,1-1.27-3.77c3.7-1.69,7.28-3.53,10.65-5.47a2,2,0,0,1,2,3.47c-3.48,2-7.17,3.9-11,5.64A2,2,0,0,1,671.43,472.86Zm39.36-9.95a2,2,0,0,1-.88,0c-4-.92-8-2-11.9-3.14a2,2,0,0,1-1.42-2c-1.11.88-2.25,1.75-3.4,2.59a2,2,0,1,1-2.36-3.23,95.66,95.66,0,0,0,9.18-7.59,2,2,0,0,1,2.74,2.92q-1.86,1.74-3.85,3.42a1.31,1.31,0,0,1,.27.06c3.76,1.14,7.68,2.17,11.63,3.08a2,2,0,0,1,1.5,2.39A2,2,0,0,1,710.79,462.91ZM588.37,488.16a2.73,2.73,0,0,1-.5,0c-4.08-.11-8.2-.34-12.25-.68a2,2,0,0,1,.33-4c4,.33,8,.55,12,.66a2,2,0,0,1,.39,4Zm-24.23-2a1.93,1.93,0,0,1-.72,0c-4.1-.58-8.17-1.29-12.11-2.11a2,2,0,0,1,.81-3.91c3.86.79,7.85,1.49,11.86,2.06a2,2,0,0,1,.16,3.93Zm123.38-30.28a2,2,0,0,1-1.16-.09c-3.9-1.51-7.71-3.17-11.3-4.93a2,2,0,0,1,1.75-3.59c3.5,1.71,7.2,3.32,11,4.79a2,2,0,0,1-.29,3.82ZM710.09,444a2,2,0,0,1-2-3.2,79.55,79.55,0,0,0,6.74-9.75,2,2,0,1,1,3.45,2,83.35,83.35,0,0,1-7.08,10.23A2,2,0,0,1,710.09,444ZM540.33,481.17a1.92,1.92,0,0,1-1,0c-4.05-1.14-8-2.42-11.72-3.81a2,2,0,1,1,1.39-3.75c3.63,1.35,7.47,2.6,11.42,3.71a2,2,0,0,1-.11,3.88Zm125.39-36.05a2,2,0,0,1-1.49-.25,103.58,103.58,0,0,1-10.14-7.12,2,2,0,0,1,2.49-3.13,98.72,98.72,0,0,0,9.76,6.85,2,2,0,0,1,.64,2.76A2,2,0,0,1,665.72,445.12ZM517.58,472.63a2,2,0,0,1-1.32-.15,99.47,99.47,0,0,1-10.79-6.13,2,2,0,1,1,2.2-3.34A94,94,0,0,0,518,468.88a2,2,0,0,1-.44,3.75Zm204.74-49.49a2,2,0,0,1-1.17-.09,2,2,0,0,1-1.13-2.6,79.33,79.33,0,0,0,3.5-11.31,2,2,0,0,1,3.9.9,81.83,81.83,0,0,1-3.68,11.88A2,2,0,0,1,722.32,423.14Zm-75.49,6.78a2,2,0,0,1-1.9-.58,72.25,72.25,0,0,1-7.75-9.78,2,2,0,1,1,3.34-2.2,68.74,68.74,0,0,0,7.33,9.24,2,2,0,0,1-1,3.32Zm81-30.38a1.84,1.84,0,0,1-.62,0,2,2,0,0,1-1.81-2.16c.17-1.94.28-3.93.33-5.92s0-4-.06-6a2,2,0,1,1,4-.19c.1,2,.12,4.12.07,6.25s-.17,4.14-.35,6.17A2,2,0,0,1,727.8,399.54Zm-94.18,10.14a2,2,0,0,1-2.28-1.2,56.38,56.38,0,0,1-2.88-9.05c-.22-1-.42-2-.59-3.06a2,2,0,0,1,4-.63c.15.93.34,1.88.55,2.81A53.14,53.14,0,0,0,635,407a2,2,0,0,1-1.1,2.6A1.73,1.73,0,0,1,633.62,409.68Zm92.83-34.32a2,2,0,0,1-2.38-1.5,47.14,47.14,0,0,0-4-10.93,2,2,0,1,1,3.55-1.84A51.14,51.14,0,0,1,728,373a2,2,0,0,1-1.49,2.4ZM630,385.9a1.87,1.87,0,0,1-.67,0,2,2,0,0,1-1.75-2.22,43.39,43.39,0,0,1,3.31-12.25,2,2,0,1,1,3.67,1.59,39.53,39.53,0,0,0-3,11.13A2,2,0,0,1,630,385.9Zm85.21-31.74a2,2,0,0,1-1.85-.53,35.88,35.88,0,0,0-9.31-6.69,2,2,0,1,1,1.79-3.58,39.48,39.48,0,0,1,10.34,7.44,2,2,0,0,1,0,2.83A2,2,0,0,1,715.21,354.16Zm-75.75,9.69a2,2,0,0,1-2-3.21,54.86,54.86,0,0,1,9-8.82,2,2,0,1,1,2.46,3.15,50.45,50.45,0,0,0-8.33,8.18A2,2,0,0,1,639.46,363.85Zm54.41-20.53a2,2,0,0,1-.8,0,49.65,49.65,0,0,0-11.64-.66,2,2,0,0,1-.23-4,53.34,53.34,0,0,1,12.58.72,2,2,0,0,1,.09,3.92Zm-35.46,5.57a2,2,0,0,1-1.32-3.74,64.06,64.06,0,0,1,11.72-4.44,2,2,0,1,1,1.05,3.86,60.37,60.37,0,0,0-11,4.16A1.62,1.62,0,0,1,658.41,348.89Z" transform="translate(-185.15 -239.17)"/><path class="af1e5619-26bb-4ac9-9f46-d7c2a927e79b" d="M879.14,418.19a2,2,0,0,1-2-3.22c1.25-1.52,2.47-3.08,3.61-4.65a2,2,0,0,1,3.23,2.36c-1.19,1.63-2.45,3.25-3.75,4.83A2,2,0,0,1,879.14,418.19Z" transform="translate(-185.15 -239.17)"/><path class="af1e5619-26bb-4ac9-9f46-d7c2a927e79b" d="M1726.67,1045.72a1.6,1.6,0,0,1-.19,1.49,46.46,46.46,0,0,1-3.08,3.88A1.59,1.59,0,0,1,1721,1049a46.14,46.14,0,0,0,2.87-3.62,1.59,1.59,0,0,1,2.22-.38A1.52,1.52,0,0,1,1726.67,1045.72Z" transform="translate(-185.15 -239.17)"/><path class="af1e5619-26bb-4ac9-9f46-d7c2a927e79b" d="M1697,805.41c.5,1.33,1,2.69,1.44,4a1.6,1.6,0,1,1-3,1c-1-3-2.19-6.07-3.4-9a1.62,1.62,0,0,1,.87-2.09,1.59,1.59,0,0,1,2.08.86C1695.7,801.94,1696.38,803.68,1697,805.41Zm4.27,13.28a.58.58,0,0,1,0,.14c.85,3.12,1.63,6.33,2.3,9.53a1.59,1.59,0,1,1-3.12.66c-.66-3.14-1.43-6.29-2.26-9.35a1.59,1.59,0,0,1,3-1ZM1691,791.47a1.59,1.59,0,0,1-2.92,1.27c-1.44-2.89-3-5.72-4.6-8.42a1.6,1.6,0,0,1,2.74-1.64c1.65,2.77,3.24,5.68,4.72,8.63Zm14.33,46.23a3,3,0,0,1,.08.32c.48,3.22.88,6.49,1.18,9.73a1.6,1.6,0,0,1-3.18.3c-.29-3.18-.68-6.4-1.16-9.55a1.6,1.6,0,0,1,3.08-.8ZM1681,774.81a1.6,1.6,0,0,1-2.8,1.48c-1.87-2.63-3.85-5.17-5.89-7.55a1.6,1.6,0,0,1,2.43-2.08c2.1,2.46,4.14,5.07,6.07,7.78A1.62,1.62,0,0,1,1681,774.81ZM1707.1,857a1.71,1.71,0,0,1,.1.51c.11,3.28.12,6.58,0,9.81a1.6,1.6,0,0,1-3.2-.08c.09-3.17.07-6.41,0-9.62a1.6,1.6,0,0,1,1.54-1.66A1.63,1.63,0,0,1,1707.1,857Zm-38.71-97a1.59,1.59,0,0,1-2.6,1.71,91.77,91.77,0,0,0-7.2-6.27,1.6,1.6,0,1,1,2-2.52,96.1,96.1,0,0,1,7.45,6.49A1.62,1.62,0,0,1,1668.39,760.07Zm62.88,172.71v0c1.07,3,2.08,6.18,3,9.36a1.6,1.6,0,0,1-3.07.88c-.89-3.11-1.87-6.2-2.92-9.17a1.6,1.6,0,0,1,3-1.09Zm-3.54-9a1.6,1.6,0,0,1-3,1.19c-1.28-3-2.67-5.89-4.12-8.67a1.6,1.6,0,0,1,2.84-1.47c1.48,2.84,2.9,5.83,4.22,8.88Zm8.89,27.73a.83.83,0,0,1,.06.21c.71,3.17,1.34,6.4,1.88,9.63a1.6,1.6,0,0,1-3.16.52c-.52-3.17-1.14-6.34-1.83-9.45a1.59,1.59,0,0,1,3-.91Zm-17.9-44.92a1.6,1.6,0,0,1-2.85,1.41c-1.74-2.75-3.58-5.38-5.48-7.84a1.6,1.6,0,1,1,2.53-2c2,2.53,3.86,5.25,5.65,8.08A2.1,2.1,0,0,1,1718.72,906.54Zm-12.14-30.08a1.66,1.66,0,0,1,.1.7c-.3,3.3-.7,6.58-1.21,9.76a1.61,1.61,0,0,1-1.43,1.34c.82.78,1.63,1.59,2.42,2.41a1.59,1.59,0,0,1,0,2.26,1.61,1.61,0,0,1-2.26,0,76.59,76.59,0,0,0-7-6.45,1.6,1.6,0,0,1,2-2.48c1,.85,2.1,1.74,3.13,2.67a.86.86,0,0,1,0-.22c.49-3.1.89-6.31,1.17-9.53a1.6,1.6,0,0,1,3.09-.42Zm33.22,94.16a2.23,2.23,0,0,1,.09.39c.35,3.24.62,6.53.79,9.77a1.6,1.6,0,0,1-3.19.16c-.17-3.17-.43-6.4-.78-9.59a1.6,1.6,0,0,1,3.09-.73Zm1,19.4a1.69,1.69,0,0,1,.1.56c0,3.31-.14,6.61-.36,9.81a1.6,1.6,0,1,1-3.19-.21c.21-3.14.33-6.38.35-9.61a1.6,1.6,0,0,1,3.1-.55Zm-37.31-94.38a1.63,1.63,0,0,1,.06.93c-.78,3.25-1.68,6.44-2.68,9.48a1.6,1.6,0,0,1-3-1c1-2.95,1.85-6.06,2.6-9.22a1.6,1.6,0,0,1,3-.19Zm-11.78-16.59a1.63,1.63,0,0,1-.13,1.39,1.61,1.61,0,0,1-2.19.54,63.71,63.71,0,0,0-8.44-4.28,1.6,1.6,0,0,1,1.22-3,67.71,67.71,0,0,1,8.87,4.49A1.64,1.64,0,0,1,1691.73,879.05Zm47.73,130.34a1.7,1.7,0,0,1,.09.78c-.47,3.33-1.06,6.59-1.75,9.69a1.6,1.6,0,1,1-3.12-.7c.67-3,1.25-6.19,1.7-9.43a1.6,1.6,0,0,1,3.08-.34Zm-42.08-95.34a1.59,1.59,0,0,1,0,1.21,82.57,82.57,0,0,1-4.54,8.8,1.6,1.6,0,1,1-2.74-1.64,79,79,0,0,0,4.36-8.46,1.6,1.6,0,0,1,3,.09Zm37.78,114.27a1.6,1.6,0,0,1,0,1.06,78,78,0,0,1-3.68,9.2,1.59,1.59,0,1,1-2.88-1.37,76.62,76.62,0,0,0,3.53-8.83,1.6,1.6,0,0,1,2-1A1.57,1.57,0,0,1,1735.16,1028.32Zm-61.3-156.68a1.57,1.57,0,0,1,.06.94,1.6,1.6,0,0,1-1.93,1.17,62.77,62.77,0,0,0-9.34-1.55,1.6,1.6,0,0,1-1.44-1.74,1.59,1.59,0,0,1,1.73-1.44,66.7,66.7,0,0,1,9.81,1.62A1.6,1.6,0,0,1,1673.86,871.64Zm13.53,59a1.59,1.59,0,0,1-.26,1.56,57.67,57.67,0,0,1-6.9,7.2,1.6,1.6,0,0,1-2.1-2.41,54.81,54.81,0,0,0,6.52-6.8,1.6,1.6,0,0,1,2.25-.23A1.57,1.57,0,0,1,1687.39,930.65Zm-32.79-60.8a2,2,0,0,1,.1.48,1.61,1.61,0,0,1-1.52,1.68c-1.56.07-3.14.2-4.72.37s-3.2.42-4.71.7a1.6,1.6,0,1,1-.59-3.15c1.59-.29,3.26-.53,4.95-.72s3.29-.32,4.91-.39A1.59,1.59,0,0,1,1654.6,869.85Zm18.2,73.44a1.61,1.61,0,0,1-.7,1.94,45.85,45.85,0,0,1-6.86,3.25c-.77.29-1.57.56-2.35.8a1.6,1.6,0,0,1-.93-3.06c.72-.22,1.45-.47,2.17-.73a42.82,42.82,0,0,0,6.37-3,1.6,1.6,0,0,1,2.18.58C1672.73,943.12,1672.76,943.21,1672.8,943.29Zm-37.2-69.76a1.59,1.59,0,0,1-.93,2.05,38.06,38.06,0,0,0-8.22,4.32,1.6,1.6,0,0,1-1.84-2.61,41,41,0,0,1,8.92-4.69,1.58,1.58,0,0,1,2.06.92Zm18.77,75.2a1.78,1.78,0,0,1,.1.52,1.61,1.61,0,0,1-1.57,1.63,35.06,35.06,0,0,1-10.06-1.3,1.6,1.6,0,0,1,.87-3.08,31.82,31.82,0,0,0,9.13,1.19A1.59,1.59,0,0,1,1654.37,948.73Zm-34.33-64a1.6,1.6,0,0,1-.22,1.53,28.16,28.16,0,0,0-4.29,8.09,1.6,1.6,0,0,1-3-1,31.69,31.69,0,0,1,4.76-9,1.6,1.6,0,0,1,2.77.41Zm15.86,58.9a1.63,1.63,0,0,1-.13,1.39,1.6,1.6,0,0,1-2.19.54,43.33,43.33,0,0,1-8-6.16,1.6,1.6,0,1,1,2.23-2.29,40.4,40.4,0,0,0,7.37,5.71A1.72,1.72,0,0,1,1635.9,943.62Zm-22.13-40.84a1.67,1.67,0,0,1,.1.63,38.77,38.77,0,0,0,.73,9.28,1.6,1.6,0,1,1-3.14.62,43,43,0,0,1-.79-10,1.6,1.6,0,0,1,3.1-.49Zm8.24,27.46a1.6,1.6,0,0,1-2.82,1.45,51.27,51.27,0,0,1-4.78-8.8,1.6,1.6,0,0,1,2.94-1.24,48.09,48.09,0,0,0,4.49,8.25A1.8,1.8,0,0,1,1622,930.24Z" transform="translate(-185.15 -239.17)"/><path class="af1e5619-26bb-4ac9-9f46-d7c2a927e79b" d="M1653,748.07a1.6,1.6,0,0,1-2.34,1.91c-1.34-.82-2.71-1.61-4.07-2.35a1.6,1.6,0,0,1,1.52-2.81c1.42.77,2.84,1.59,4.23,2.44A1.63,1.63,0,0,1,1653,748.07Z" transform="translate(-185.15 -239.17)"/></svg>